<svg viewBox="0 0 500 500" version="1.1" xmlns="http://www.w3.org/2000/svg" id="Layer_1">
  
  <defs>
    <style>
      .st0 {
        fill: #000000;
      }
    </style>
  </defs>
  <path d="M333,395.7c-2.24,1.38-15.92,42.09-19.8,48.68-2.27,3.86-4.92,6.75-9.39,3.84-2.41-1.57-29.37-46.52-29.33-49.4.06-3.91,6.74-7.54,10.43-4.3,5.07,4.45,14.14,24.63,19.07,31.73.82,1.18-.22,2.52,3,1.76l16.02-40.27,4.37-5.15,51.5,4.74-46.76-75.87c-48.54,34.38-115.49,34.49-164.15.18l-48.13,75.68,52.9-4.76c5.17,2.55,16.26,38.46,20.36,45.46.82.62,3.17-2.73,3.81-3.63,13.82-19.34,28.96-56.16,43.66-71.61,1.37-1.44,2.36-3.28,4.69-3.38l5.96,3.59-.88,6.85c-18.9,24.43-32.42,60.95-51.28,84.33-3.05,3.78-6.6,8.64-10.67,2.77l-21.26-51.29c-3.39-2.19-40.45,3.67-47.91,3.94-8.13.3-21.25,2.67-15.95-9.18l53.16-86.53c-10.37-12.21-21.22-22.51-29.54-36.84-52.86-91.01,7.89-207.91,112.93-214.74,137.89-8.97,205.79,161.8,102.77,251.61,5.14,13.17,56.02,83.37,55.36,90.81-.22,2.48-3.72,5.96-6.2,6.18l-58.75-5.2ZM237.57,64.97c-94.98,8.41-147.51,113.19-100.32,195.79,44.13,77.26,154.31,86.54,211.77,18.71,75.89-89.59,5.04-224.82-111.44-214.5Z" class="st0"></path>
  <path d="M299.75,157.16c5.04-.46,8.78,3.65,8.72,8.48-.07,5.57-18.7,19.34-23.87,23.66-17.76,14.85-36.27,29-54.57,43.18l-4.44-.31-33.25-35.98c-2.99-6.22,2.23-13.83,8.91-11.74,7.03,2.2,24.49,28.65,28.95,27.85l69.55-55.14Z" class="st0"></path>
</svg>