<svg viewBox="0 0 500 500" version="1.1" xmlns="http://www.w3.org/2000/svg" id="Layer_1">
  
  <defs>
    <style>
      .st0 {
        fill: #262626;
      }
    </style>
  </defs>
  <path d="M227.4,61.76c162.87-14.85,271.35,161.22,177.63,296.56-89.19,128.8-291.19,97.86-336.64-52.01C34.61,194.95,109.83,72.49,227.4,61.76ZM228.82,74.52c-72.51,6.43-137.03,66.37-152,136.88-32.42,152.71,132.4,271.57,265.46,188.98,158.03-98.09,78.12-342.83-113.46-325.85Z" class="st0"></path>
  <path d="M297.08,202.95h51.69c.41,0,6.08,3.46,7.08,4.25,8.62,6.79,8.92,16.96,6.37,26.89,21.94,3.86,21.17,37.78-1.31,41.19,2.28,11.01,1.03,20.49-8.66,27.44-2.22,1.59-6.84,2.13-7.81,3.53-1.89,2.73.76,7.91.5,11.69-1.23,17.97-26.24,20.51-40.25,22.18-27.68,3.3-58.49,2.54-86.02-1.35-2.43.47-1.22,9.37-6.43,10.83-5.9,1.64-30.68,1.33-37.72.69-7.25-.67-10.49-3.27-12.04-10.62,3.08-43.38-3.88-91.89,0-134.65,1.5-16.6,23.2-14.37,36.23-13.44,7.57.54,15.38.86,18.44,8.64,19.7-11.08,27.1-33.43,30.18-54.79,1.82-12.59-2.6-21.37,12.4-28.67,17.99-8.76,35.53,2.52,42.29,19.67,8.74,22.18.62,44.81-4.94,66.53ZM360.1,245.43h-49.56c-4.11,0-4.57-10.58,0-12.74h33.99c6.3,0,9.18-14.31,1.14-16.72-17.92-2.06-38.88,1.8-56.4-.24-16.45-1.92-4.55-17.3-1.72-27.27,4.64-16.31,12.42-53.11-9.27-60.86-22.54-8.05-17.29,17.7-20.06,31.53-4.97,24.83-19.87,43.46-40.21,57.5l-.23,109.52c29.04,4.43,57.7,5.02,86.92,1.23,8.12-1.05,31.77-2.93,26.75-14.98-4.46-10.72-16.04-3.41-21.62-6.77-4.63-2.79-1.67-12.05.72-12.05h32.57c1.77,0,6.85-6.7,6.16-10.28-3.22-16.68-49.73,5.66-40.86-19.46h44.61c.46,0,8.09-2.03,8.87-2.37,5.42-2.36,3.51-14.58-1.79-16.04ZM175.3,337.47h27.61l2.12-2.12v-128.86l-2.12-2.12h-24.07c-.47,0-2.15,1.88-3.54,1.42v131.69Z" class="st0"></path>
</svg>