<svg viewBox="0 0 500 500" version="1.1" xmlns="http://www.w3.org/2000/svg" id="Layer_1">
  
  <defs>
    <style>
      .st0 {
        fill: #262626;
      }
    </style>
  </defs>
  <path d="M120.31,245.11c-.27,3.43-1.62,6.28-5.34,6.02-6.16-.44-5.27-7.81-5.58-14.11-.52-10.54-.54-39.62,9.79-42.53.51-.14,1.05-.21,1.58-.21l183.51-.28c.31,0,.62.02.92.06,5.21.76,9.07,3.63,11.11,8.24.35.78.53,1.63.54,2.49l.59,155.51c0,13.62-6.89,12.69-13.88,12.73-23.01.13-48.18-.07-71.84-.1-2.4,0-4.61,1.37-5.57,3.57-13.09,29.92-51.43,31.09-63.7.12-.88-2.23-2.93-3.79-5.32-3.91-13.48-.67-37.31,4.15-44.07-5.17-4.78-6.58-4.62-33.74-3.64-42.35.61-5.36,4.88-9.5,9.78-6.1,2.13,1.48.77,25.34,1.51,37.28.2,3.21,2.84,5.72,6.05,5.72h29.67c2.79,0,5.19-1.92,5.88-4.62,8.23-32.54,55.29-32.47,63.55,0,.69,2.7,3.09,4.62,5.88,4.62h67.53c3.35,0,6.06-2.72,6.06-6.07l-.16-145.45c0-3.12-2.38-5.73-5.49-6.03-5.57-.52-10.45-.9-15.45-.9-39.48,0-80.11.45-119.71,0-12.98-.15-25.87-.04-38.78.91-2.47.18-5.16,1.19-5.33,4.24,0,.18-.01.33-.01.38l-.07,35.93ZM190.12,344.24c-27.42,4.44-22.38,47.9,6.85,44.35,28.56-3.46,23.7-49.3-6.85-44.35Z" class="st0"></path>
  <path d="M415.6,185.18l-11.51-1.31c-.56-.06-1.08-.36-1.41-.81h0c-.32-.43-.46-.97-.39-1.51l.47-3.45c.23-1.7,1.59-3.02,3.29-3.21l9.34-1.03c2.05-.23,3.52-2.07,3.31-4.12-2.97-28.77-30.88-56.3-59.63-57.95-2.64-.15-1.83.06-1.78,1.82.44,15.03,1.8,18.09-7.91,16.77-2.86-.39-2.57-5.92-2.55-7.91l-.32-6.73c-.07-2.2-2.02-3.85-4.2-3.59-26.35,3.15-49.39,23.02-56.3,48.71-1.81,6.74-1.51,12.97-2.77,18.99-1.59,7.55-11.18,7.27-10.6-5.76,1.37-30.99,25.05-61.08,54.69-69.85,57.27-16.94,108.88,27.81,102.36,86.63-.51,4.64-3.79,20.78-10.09,20.14-8.76-.9-2.22-13.66-.76-21.46.4-2.12-1.11-4.13-3.26-4.37Z" class="st0"></path>
  <path d="M413.5,372.97c-2.36-.73-2.67-7.26-.68-9.15,3.05-2.12,22.48-.6,27.05-1.97,2.01-.61,3.77-3.51,4.21-5.47,2.08-9.43,1.33-55.06.25-66.23-2.14-22.02-20.44-46.02-36.57-60.15-24.84-3.88-50.18-1.46-75.27-2.12-5.81-1.08-5.83-9.66,3.62-10.23,23.42-1.41,50.42,1.54,74.18,1.35,12.3,3.74,35.13,38.7,39.81,50.88,6.44,16.77,7.53,68.24,5.02,86.66-.82,6.04-7.28,16.43-13.8,16.43h-27.81Z" class="st0"></path>
  <path d="M340.18,373.13l-12.86-.63c-3-.15-5.48-2.69-5.22-5.68.59-6.86,14.3-3.26,17.11-5.26,5.51-34.31,55.07-39.01,64.88-5.78,12.94,43.83-52.64,62.24-63.91,17.35ZM357.69,349.2c-22.69,19.28,8.13,54.27,30.41,33.42,20.94-19.59-8.26-52.24-30.41-33.42Z" class="st0"></path>
  <path d="M386.3,289.54c1.19-.39,2.62,1.21,3.02,1.21h44.74c2.6,0,2.23,9.1-.24,9.7-15.27.89-32.93,2.48-48.18,1.23-2.28-.19-7.05-.61-8.4-2.48-1.09-2.9-1.61-5.93-1.87-9.01-1-11.57-1.16-35.74.19-47.08,1.28-10.71,10.74-6.14,10.74-3.75v50.18Z" class="st0"></path>
  <path d="M44.24,302.71c-1.76-2.09.46-10.74,5.25-9.6,31.22,3.15,70.2-3.99,100.47,0,8.43,1.11,7.01,11.08-1.24,10.96-31.64-1.69-65.43,2.18-96.8.03-1.35-.09-7.32-.96-7.68-1.39Z" class="st0"></path>
  <path d="M44.24,280.85c-1.76-2.09.46-10.74,5.25-9.6,31.22,3.15,70.2-3.99,100.47,0,8.43,1.11,7.01,11.08-1.24,10.96-31.64-1.69-65.43,2.18-96.8.03-1.35-.09-7.32-.96-7.68-1.39Z" class="st0"></path>
  <path d="M315.26,147.18c.74-.74,2.94-1.54,3.96-1.46,4.35.36,20.13,20.36,29.21,29.54,2.65,2.68,6.91,2.83,9.74.35,4.22-3.7,9.72-8.9,12.09-9.24,3.53-.51,7.2,3.81,6.2,7.44-.39,1.4-18.88,16.99-20.89,17.89-.02,0-.04.02-.06.03-2.8,1.25-6.09.59-8.16-1.68l-31.72-34.77c-1.97-2.09-2.43-6.03-.36-8.1Z" class="st0"></path>
</svg>