<svg viewBox="0 0 500 500" version="1.1" xmlns="http://www.w3.org/2000/svg" id="Layer_1">
  
  <defs>
    <style>
      .st0 {
        fill: #262626;
      }
    </style>
  </defs>
  <path d="M88.67,150.1c2.98,2.18,30.9-4.87,36.97-4.77,2.76.05,4.74.78,6.22,3.21,2.12,5.8.89,8.82-4.77,10.95-6.77,2.54-43.59,7.66-51.86,7.96-1.89.07-3.73.24-5.43-.83-3.58-2.15-5.33-21.73-6.06-26.91-1.14-8.1-3.4-22.11-3.47-29.64-.09-9.03,10.3-10.21,12.83-6.01,2.31,3.82,3.8,23.47,4.64,29.53.31,2.24-1.48,4.63,2.27,3.96C165.58,12.49,359.07,29.14,421.79,167.89c74.05,163.81-94.6,334.45-258.82,261.94-7.3-3.22-42.63-22.11-44.24-28.1-1.21-4.51,1.63-10.19,6.7-9.88,2.99.18,26.46,16.7,32.29,19.69,168.66,86.49,341.26-108.86,236.18-264.42-73.11-108.24-234.65-106.2-305.23,2.98Z" class="st0"></path>
  <path d="M237.51,137.94c19.98-1.54,58.12,22.13,75.55,33.49,30.57,19.92,26.78,31.23,28.32,64.31,1.14,24.61,5.81,52.41-11.69,72.95-8.57,10.06-62.89,41.69-75.84,45.05-13.07,3.39-21.46,1.95-33.85-2.91-13.37-5.24-60.18-32.72-68.49-42.98-14.57-18-12.67-61.07-12.01-84.47.38-13.45,2.69-25.08,10.67-36.1,10.14-14.02,70.18-48.01,87.34-49.33ZM239.09,152.03c-5.2.28-12.18,2.94-17.03,5.08-11.98,5.29-40.11,21.61-50.68,29.39-.03.02-.05.04-.08.06-3.93,2.91-3.49,8.95.72,11.45l64.28,38.23c1.07.63,2.29.97,3.53.98h2.28c1.26.01,2.49-.33,3.57-.97l64.25-38.23c4.2-2.5,4.64-8.53.72-11.45-.03-.02-.06-.04-.09-.07-9.4-6.94-48.45-29.62-58.57-32.49-3.85-1.09-8.91-2.19-12.9-1.98ZM234.68,340.06c.61-.58.63-6.02.65-7.57.23-22.72.42-49.4-.59-71.76-.59-13.09-7.02-13.06-16.86-19.25-17.31-10.89-35.86-20.02-53.53-30.41-4.36-2.57-9.89.24-10.43,5.28-.17,1.66-.26,3.1-.29,3.9-.49,16.45-.53,43.37.91,59.45,1.33,14.91,10.1,22.45,21.57,30.24,5.94,4.04,55.66,32.87,58.56,30.12ZM317.82,211.32c-22.61,11.36-45.11,24.22-65.86,38.24-1.89,1.28-3.02,3.43-3.04,5.71-.14,16.58-.2,31.93-.03,47.99.11,10.34,0,20.05-.08,27.15-.06,5.29,5.62,8.77,10.23,6.19.26-.15.52-.29.8-.42,15.3-7.71,55.91-30.92,64.06-44.27,3.85-6.3,4.51-20.68,5.07-33.21.17-3.71-.05-9.84,0-13.54.11-9.45-.51-18.73-1.07-28.05-.3-4.98-5.6-8.03-10.06-5.79Z" class="st0"></path>
</svg>